<?xml version="1.0" encoding="UTF-8" standalone="no"?>
<svg width="41px" height="41px" viewBox="0 0 41 41" version="1.1" xmlns="http://www.w3.org/2000/svg" xmlns:xlink="http://www.w3.org/1999/xlink">
    <!-- Generator: Sketch 48.2 (47327) - http://www.bohemiancoding.com/sketch -->
    <title>Group</title>
    <desc>Created with Sketch.</desc>
    <defs></defs>
    <g id="Desktop-HD-Copy-9" stroke="none" stroke-width="1" fill="none" fill-rule="evenodd" transform="translate(-26.000000, -93.000000)">
        <g id="Group" transform="translate(26.000000, 93.000000)" fill="#FFFFFF">
            <g id="Home">
                <g id="Group-3">
                    <path d="M20.5,1.36649583 C9.93225,1.36649583 1.36666667,9.9337875 1.36666667,20.4998292 C1.36666667,31.0675792 9.93225,39.6331625 20.5,39.6331625 C31.06775,39.6331625 39.6333333,31.0675792 39.6333333,20.4998292 C39.621375,9.9389125 31.062625,1.37845417 20.5,1.36649583 M20.5,40.9998292 C9.178875,40.9998292 0,31.8226625 0,20.4998292 C0,9.17870417 9.178875,-0.000170833333 20.5,-0.000170833333 C31.821125,-0.000170833333 41,9.17870417 41,20.4998292 C40.9863333,31.8158292 31.816,40.9878708 20.5,40.9998292" id="Fill-1"></path>
                </g>
                <path d="M20.5,5.46700833 C20.3189167,5.46700833 20.1446667,5.39525833 20.0165417,5.26713333 C19.8884167,5.13900833 19.8166667,4.96475833 19.8166667,4.783675 L19.8166667,3.41700833 C19.8166667,3.03946667 20.1224583,2.733675 20.5,2.733675 C20.8775417,2.733675 21.1833333,3.03946667 21.1833333,3.41700833 L21.1833333,4.783675 C21.1833333,4.96475833 21.1115833,5.13900833 20.9834583,5.26713333 C20.8553333,5.39525833 20.6810833,5.46700833 20.5,5.46700833" id="Fill-4"></path>
                <path d="M37.9253417,21.1831625 L36.558675,21.1831625 C36.1811333,21.1831625 35.8753417,20.8773708 35.8753417,20.4998292 C35.8753417,20.1222875 36.1811333,19.8164958 36.558675,19.8164958 L37.9253417,19.8164958 C38.3028833,19.8164958 38.6069667,20.1222875 38.6069667,20.4998292 C38.6069667,20.8773708 38.3028833,21.1831625 37.9253417,21.1831625" id="Fill-6"></path>
                <path d="M4.44098333,21.1831625 L3.07431667,21.1831625 C2.696775,21.1831625 2.39269167,20.8773708 2.39269167,20.4998292 C2.39269167,20.1222875 2.696775,19.8164958 3.07431667,19.8164958 L4.44098333,19.8164958 C4.82023333,19.8164958 5.12431667,20.1222875 5.12431667,20.4998292 C5.12431667,20.8773708 4.82023333,21.1831625 4.44098333,21.1831625" id="Fill-8"></path>
                <path d="M28.5278,7.6183125 C28.2835083,7.6183125 28.0597167,7.48677083 27.9367167,7.27664583 C27.815425,7.0648125 27.815425,6.8034375 27.9367167,6.5933125 L28.6217583,5.4094375 C28.74305,5.19760417 28.96855,5.06777083 29.2111333,5.06777083 C29.4571333,5.06777083 29.6826333,5.19760417 29.803925,5.4094375 C29.9252167,5.62127083 29.9252167,5.8809375 29.803925,6.09277083 L29.1223,7.27664583 C28.9975917,7.48847917 28.7738,7.6183125 28.5278,7.6183125" id="Fill-10"></path>
                <path d="M35.5897083,30.2378417 C35.470125,30.2378417 35.35225,30.2053833 35.24975,30.1455917 L34.0641667,29.4622583 C33.737875,29.2743417 33.6268333,28.8558 33.81475,28.5295083 C34.0026667,28.2032167 34.4212083,28.0904667 34.7492083,28.2800917 L35.931375,28.9617167 C36.1995833,29.117175 36.331125,29.4315083 36.2508333,29.732175 C36.1705417,30.029425 35.900625,30.2378417 35.5897083,30.2378417" id="Fill-12"></path>
                <path d="M6.59314167,13.4956625 C6.47355833,13.4956625 6.353975,13.4632042 6.251475,13.4051208 L5.0676,12.7200792 C4.85576667,12.5987875 4.72593333,12.3732875 4.72593333,12.1289958 C4.72593333,11.8847042 4.85576667,11.6592042 5.06589167,11.5379125 C5.277725,11.4149125 5.5391,11.4149125 5.75093333,11.5379125 L6.93480833,12.2195375 C7.20301667,12.3749958 7.33455833,12.6910375 7.25426667,12.9899958 C7.173975,13.2889542 6.90235,13.4956625 6.59314167,13.4956625" id="Fill-14"></path>
                <path d="M12.4687833,7.59490833 C12.2227833,7.59490833 11.9989917,7.465075 11.8742833,7.25324167 L11.1926583,6.06936667 C11.0713667,5.85753333 11.0713667,5.59786667 11.1926583,5.38603333 C11.31395,5.1742 11.53945,5.04436667 11.78545,5.04436667 C12.0280333,5.04436667 12.2535333,5.1742 12.374825,5.38603333 L13.0598667,6.56990833 C13.1811583,6.78174167 13.1811583,7.04140833 13.0598667,7.25324167 C12.9368667,7.465075 12.713075,7.59490833 12.4687833,7.59490833" id="Fill-16"></path>
                <path d="M34.2334625,13.1770583 C33.9242542,13.1770583 33.6526292,12.9686417 33.5723375,12.6713917 C33.4920458,12.3724333 33.6235875,12.0563917 33.8917958,11.9009333 L35.0739625,11.2193083 C35.2857958,11.0963083 35.5471708,11.0963083 35.7590042,11.2176 C35.9708375,11.3406 36.1006708,11.5661 36.1006708,11.8103917 C36.1006708,12.0546833 35.9708375,12.2801833 35.7590042,12.401475 L34.5751292,13.0848083 C34.4726292,13.1446 34.3530458,13.1770583 34.2334625,13.1770583" id="Fill-18"></path>
                <path d="M5.236725,29.9183833 C4.92580833,29.9183833 4.65589167,29.711675 4.5756,29.4127167 C4.49530833,29.1137583 4.62685,28.7977167 4.89505833,28.6422583 L6.077225,27.9606333 C6.28905833,27.8376333 6.55043333,27.8376333 6.76226667,27.9606333 C6.97239167,28.081925 7.102225,28.307425 7.102225,28.5517167 C7.102225,28.7960083 6.97239167,29.0215083 6.76055833,29.1428 L5.57668333,29.8261333 C5.47418333,29.885925 5.35630833,29.9183833 5.236725,29.9183833" id="Fill-20"></path>
                <path d="M20.5,18.3671458 C19.9482083,18.3671458 19.449375,18.7002708 19.2375417,19.2110625 C19.0257083,19.7218542 19.141875,20.3095208 19.5347917,20.7007292 C20.074625,21.2166458 20.925375,21.2166458 21.4652083,20.7007292 C21.8564167,20.3095208 21.9742917,19.7218542 21.7624583,19.2110625 C21.550625,18.7002708 21.0517917,18.3671458 20.5,18.3671458 M20.5,22.4671458 C19.3947083,22.4671458 18.39875,21.8008958 17.973375,20.7810208 C17.5514167,19.7577292 17.7854583,18.5823958 18.567875,17.8016875 C19.64925,16.7681458 21.35075,16.7681458 22.432125,17.8016875 C22.9463333,18.3141875 23.2333333,19.0077708 23.2333333,19.7338125 C23.2333333,20.4598542 22.9463333,21.1534375 22.432125,21.6659375 C21.9213333,22.1801458 21.2260417,22.4688542 20.5,22.4671458" id="Fill-22"></path>
                <path d="M22.0532167,19.0786667 C21.7764667,19.0786667 21.52705,18.91125 21.4211333,18.6567083 C21.3152167,18.4021667 21.3750083,18.1083333 21.5697583,17.911875 L27.7470917,11.7345417 C28.0135917,11.4663333 28.4475083,11.4663333 28.7140083,11.7345417 C28.9822167,12.0010417 28.9822167,12.43325 28.7140083,12.7014583 L22.5349667,18.8787917 C22.40855,19.0069167 22.2325917,19.0786667 22.0532167,19.0786667" id="Fill-24"></path>
                <path d="M20.3264333,35.89755 C20.14535,35.89755 19.9711,35.9693 19.842975,36.097425 C19.7165583,36.22555 19.6431,36.3998 19.6431,36.5808833 L19.6431,37.94755 C19.6431,38.3250917 19.9488917,38.6308833 20.3264333,38.6308833 C20.703975,38.6308833 21.0097667,38.3250917 21.0097667,37.94755 L21.0097667,36.5808833 C21.0097667,36.3998 20.9380167,36.22555 20.8098917,36.097425 C20.6817667,35.9693 20.5075167,35.89755 20.3264333,35.89755" id="Fill-26"></path>
                <path d="M28.3544042,33.7464167 C28.1101125,33.7464167 27.8863208,33.87625 27.7633208,34.0880833 C27.6420292,34.2999167 27.6420292,34.5595833 27.7633208,34.7714167 L28.4483625,35.9552917 C28.5696542,36.167125 28.7951542,36.2969583 29.0377375,36.2969583 C29.2837375,36.2969583 29.5092375,36.167125 29.6305292,35.9552917 C29.7535292,35.7434583 29.7535292,35.4837917 29.6305292,35.2719583 L28.9489042,34.0880833 C28.8241958,33.87625 28.6004042,33.7464167 28.3544042,33.7464167" id="Fill-28"></path>
                <path d="M12.2953875,33.7687958 C12.0493875,33.7687958 11.8255958,33.8986292 11.7008875,34.1104625 L11.0192625,35.2943375 C10.8979708,35.5061708 10.8979708,35.7658375 11.0192625,35.9776708 C11.1405542,36.1895042 11.3660542,36.3193375 11.6120542,36.3193375 C11.8546375,36.3193375 12.0801375,36.1895042 12.2014292,35.9776708 L12.8864708,34.7937958 C13.0077625,34.5819625 13.0077625,34.3222958 12.8864708,34.1104625 C12.7634708,33.8986292 12.5396792,33.7687958 12.2953875,33.7687958" id="Fill-30"></path>
            </g>
        </g>
    </g>
</svg>