<?xml version="1.0" encoding="UTF-8" standalone="no"?>
<svg width="110px" height="42px" viewBox="0 0 110 42" version="1.1" xmlns="http://www.w3.org/2000/svg" xmlns:xlink="http://www.w3.org/1999/xlink">
    <!-- Generator: Sketch 48.2 (47327) - http://www.bohemiancoding.com/sketch -->
    <title>Group 12</title>
    <desc>Created with Sketch.</desc>
    <defs></defs>
    <g id="Desktop-HD-Copy-9" stroke="none" stroke-width="1" fill="none" fill-rule="evenodd" transform="translate(-102.000000, -23.000000)">
        <g id="Group-8" transform="translate(32.000000, 22.000000)" fill="#FFFFFF">
            <g id="Group-12" transform="translate(70.000000, 1.000000)">
                <path d="M9.73193539,0 C15.2711816,0 18.453953,2.82453638 18.453953,7.81455064 C18.453953,13.0556348 15.2711816,16.0684736 9.73193539,16.0684736 L6.36554265,16.0684736 L6.36554265,22 L0,22 L0,0 L9.73193539,0 Z M9.42589969,11.0470756 C11.3233211,11.0470756 12.4250496,9.98002853 12.4250496,8.00285307 C12.4250496,6.08844508 11.3233211,5.021398 9.42589969,5.021398 L6.36554265,5.021398 L6.36554265,11.0470756 L9.42589969,11.0470756 Z M20.9022386,0 L27.2677812,0 L27.2677812,16.5392297 L36.2652309,16.5392297 L36.2652309,22 L20.9022386,22 L20.9022386,0 Z M54.1989232,22 L52.9441768,18.4850214 L44.2833664,18.4850214 L42.9980164,22 L36.4488524,22 L45.5993199,0 L52.148484,0 L60.9929158,22 L54.1989232,22 Z M46.0583735,13.7146933 L51.2609804,13.7146933 L48.6902805,6.5278174 L46.0583735,13.7146933 Z M78.2533296,22 L76.9985832,18.4850214 L68.3377727,18.4850214 L67.0524228,22 L60.5032587,22 L69.6537263,0 L76.2028903,0 L85.0473222,22 L78.2533296,22 Z M70.1127798,13.7146933 L75.3153868,13.7146933 L72.7446869,6.5278174 L70.1127798,13.7146933 Z M108,22 L100.379711,22 L95.391329,13.9657632 L92.9736469,16.7275321 L92.9736469,22 L86.6081043,22 L86.6081043,0 L92.9736469,0 L92.9736469,8.47360913 L100.165486,0 L107.510343,0 L99.737036,8.94436519 L108,22 Z" id="PLAAK"></path>
                <path d="M69.0337602,30.5211864 C71.3780559,30.5211864 72.7270081,31.6652542 72.7270081,33.6483051 C72.7270081,35.7457627 71.3780559,36.9661017 69.0337602,36.9661017 L67.3966822,36.9661017 L67.3966822,39.4322034 L65,39.4322034 L65,30.5211864 L69.0337602,30.5211864 Z M68.9158906,35.1101695 C69.8850407,35.1101695 70.4481956,34.6271186 70.4481956,33.7245763 C70.4481956,32.8474576 69.8850407,32.3771186 68.9158906,32.3771186 L67.3966822,32.3771186 L67.3966822,35.1101695 L68.9158906,35.1101695 Z M77.1012806,32.4661017 C79.0526775,32.4661017 80.1920838,33.3813559 80.2051804,34.9576271 L80.2051804,39.4322034 L77.9132712,39.4322034 L77.9132712,38.6567797 C77.4548894,39.2288136 76.7345751,39.5338983 75.7785215,39.5338983 C74.2593132,39.5338983 73.3556461,38.6440678 73.3556461,37.3855932 C73.3556461,36.0762712 74.3116997,35.3262712 76.0666473,35.3008475 L77.9132712,35.3008475 L77.9132712,35.2245763 C77.9132712,34.5762712 77.4548894,34.1949153 76.564319,34.1949153 C75.9749709,34.1949153 75.2022701,34.3855932 74.4426659,34.7415254 L73.8009313,33.2161017 C74.9141444,32.7330508 75.935681,32.4661017 77.1012806,32.4661017 Z M76.4988359,37.9957627 C77.1929569,37.9957627 77.7692084,37.6271186 77.9132712,37.1059322 L77.9132712,36.5084746 L76.5250291,36.5084746 C75.8701979,36.5084746 75.5427823,36.7372881 75.5427823,37.220339 C75.5427823,37.690678 75.8963912,37.9957627 76.4988359,37.9957627 Z M85.5093132,40.1059322 C84.9723516,41.3898305 84.0686845,42 82.7328289,42 C81.9339348,42 81.2791036,41.7711864 80.637369,41.2881356 L81.6065192,39.7245763 C81.9339348,39.9915254 82.2089639,40.1059322 82.5494761,40.1059322 C82.9423749,40.1059322 83.217404,39.9279661 83.4007567,39.5847458 L83.5710128,39.2669492 L80.637369,32.5550847 L83.0340512,32.5550847 L84.7235157,37.029661 L86.2296275,32.5550847 L88.5477299,32.5550847 L85.5093132,40.1059322 Z M91.7040163,33.6991525 C92.1885914,32.9110169 92.9874854,32.4661017 93.9828289,32.4661017 L93.9828289,34.5381356 C92.6862631,34.4110169 91.8218859,34.970339 91.7040163,35.9237288 L91.7040163,39.4322034 L89.3728172,39.4322034 L89.3728172,32.5550847 L91.7040163,32.5550847 L91.7040163,33.6991525 Z M98.2916182,32.4788136 C100.622817,32.4788136 102.168219,33.8771186 102.168219,35.9872881 C102.168219,38.1101695 100.622817,39.5084746 98.2916182,39.5084746 C95.9604191,39.5084746 94.4281141,38.1101695 94.4281141,35.9872881 C94.4281141,33.8771186 95.9604191,32.4788136 98.2916182,32.4788136 Z M98.2916182,34.309322 C97.3879511,34.309322 96.7724098,34.9957627 96.7724098,36.0127119 C96.7724098,37.0423729 97.3879511,37.7288136 98.2916182,37.7288136 C99.2083818,37.7288136 99.8239232,37.0423729 99.8239232,36.0127119 C99.8239232,34.9957627 99.2083818,34.309322 98.2916182,34.309322 Z M103.425495,30 L105.756694,30 L105.756694,39.4322034 L103.425495,39.4322034 L103.425495,30 Z M107.668801,30 L110,30 L110,39.4322034 L107.668801,39.4322034 L107.668801,30 Z" id="Payroll"></path>
            </g>
        </g>
    </g>
</svg>